<svg width="850" height="205" viewBox="0 0 850 205" fill="none" xmlns="http://www.w3.org/2000/svg">
<g clip-path="url(#clip0_227_165)">
<g opacity="0.6">
<path fill-rule="evenodd" clip-rule="evenodd" d="M553.189 -566.755C639.851 -549.277 733.16 -543.411 790.533 -480.615C858.11 -406.65 904.431 -307.155 881.223 -207.714C857.265 -105.058 765.967 -30.5306 672.057 27.0283C576.147 85.8129 469.006 123.8 359.133 112.283C235.643 99.3395 96.7104 66.43 43.4316 -38.8618C-8.47393 -141.439 63.12 -263.069 114.529 -371.113C155.369 -456.943 211.177 -539.517 300.637 -579.417C381.938 -615.677 468.114 -583.913 553.189 -566.755Z" stroke="white" stroke-opacity="0.3"/>
<path fill-rule="evenodd" clip-rule="evenodd" d="M615.721 -607.373C728.543 -582.96 789.623 -473.814 835.125 -373.153C874.749 -285.491 877.965 -187.831 848.108 -93.2655C819.152 -1.55177 766.703 91.2265 675.493 132.457C590.308 170.964 504.057 110.854 412.477 103.656C291.205 94.1237 141.978 168.017 61.4732 84.1937C-20.9309 -1.60669 16.6665 -147.155 62.6074 -260.633C103.931 -362.707 197.581 -429.778 294.029 -490.24C394.462 -553.2 502.733 -631.823 615.721 -607.373Z" stroke="white" stroke-opacity="0.3"/>
<path fill-rule="evenodd" clip-rule="evenodd" d="M632.723 -583.462C742.557 -583.828 855.085 -520.589 893.553 -424.284C929.876 -333.35 842.774 -241.087 807.393 -146.182C776.828 -64.1924 773.9 28.5688 703.59 85.2738C623.626 149.765 513.821 196.342 417.959 167.899C325.218 140.381 309.788 28.8369 256.172 -47.4808C196.063 -133.041 53.0628 -197.676 89.8997 -299.065C127.175 -401.66 292.16 -370.064 392.467 -422.617C481.366 -469.193 533.608 -583.132 632.723 -583.462Z" stroke="white" stroke-opacity="0.3"/>
<path fill-rule="evenodd" clip-rule="evenodd" d="M583.51 -597.763C687.704 -581.872 764.261 -497.39 804.877 -405.514C841.282 -323.162 800.128 -233.036 784.831 -142.358C766.131 -31.5061 804.173 107.481 707.081 174.223C609.414 241.359 485.651 164.683 372.291 141.222C257.729 117.513 109.999 135.375 53.1725 38.8935C-3.48759 -57.3049 71.4457 -179.014 122.085 -283.581C162.088 -366.185 227.301 -428.608 305.289 -481.71C391.459 -540.382 482.5 -613.169 583.51 -597.763Z" stroke="white" stroke-opacity="0.3"/>
<path fill-rule="evenodd" clip-rule="evenodd" d="M560.223 -556.77C638.654 -530.194 731.93 -534.114 783.169 -472.364C840.105 -403.748 846.208 -311.354 838.441 -221.479C828.299 -104.105 830.566 30.5719 733.103 107C629.231 188.453 480.956 188.821 356.314 156.591C236.799 125.687 136.401 46.9668 86.1177 -60.2963C40.0491 -158.569 72.0228 -270.921 105.913 -377.561C138.444 -479.922 168.157 -604.528 272.106 -645.532C372.46 -685.118 461.473 -590.23 560.223 -556.77Z" stroke="white" stroke-opacity="0.3"/>
<path fill-rule="evenodd" clip-rule="evenodd" d="M540.793 -506.119C649.583 -487.074 804.284 -532.148 851.119 -437.71C898.462 -342.247 759.466 -249.32 719.087 -146.606C686.109 -62.7174 719.191 51.0479 639.765 99.9187C560.173 148.892 467.98 79.258 378.042 63.2392C281.952 46.1247 155.801 81.5315 103.283 4.36648C50.5267 -73.1472 129.017 -174.136 153.153 -267.187C178.399 -364.52 156.147 -488.694 245.452 -543.739C335 -598.934 439.482 -523.854 540.793 -506.119Z" stroke="white" stroke-opacity="0.3"/>
<path fill-rule="evenodd" clip-rule="evenodd" d="M556.139 -540.947C634.736 -519.994 692.021 -467.676 742.557 -407.591C805.089 -333.246 882.552 -259.812 874.998 -161.847C866.306 -49.1124 809.333 75.6325 701.38 126.455C597.135 175.533 488.884 101.374 381.558 70.4581C286.797 43.1619 180.894 34.4821 122.097 -40.4095C57.8261 -122.275 25.7182 -234.456 63.2375 -335.001C99.1211 -431.162 204.732 -483.808 302.855 -524.806C384.786 -559.039 472.844 -563.151 556.139 -540.947Z" stroke="white" stroke-opacity="0.3"/>
<path fill-rule="evenodd" clip-rule="evenodd" d="M551.726 -555.617C643.749 -534.384 699.756 -455.863 747.764 -379.067C796.334 -301.372 836.873 -217.036 820.986 -124.896C803.394 -22.8625 758.316 91.3569 659.017 135.654C563.57 178.232 465.271 111.859 371.273 75.7191C298.242 47.6402 231.796 13.503 185.236 -46.5048C132.055 -115.045 77.6325 -192.79 95.7003 -279.444C114.583 -370.007 194.384 -437.477 277.214 -487.639C361.171 -538.484 458.568 -577.111 551.726 -555.617Z" stroke="white" stroke-opacity="0.3"/>
</g>
</g>
<defs>
<clipPath id="clip0_227_165">
<rect width="850" height="205" fill="white"/>
</clipPath>
</defs>
</svg>
